<?xml version="1.0" encoding="UTF-8"?>
<svg xmlns="http://www.w3.org/2000/svg" viewBox="0 0 800 320" role="img" aria-label="Preview of MBB global office locations">
  <rect width="800" height="320" rx="12" fill="#eef3f8"/>
  <rect x="1" y="1" width="798" height="318" rx="11" fill="none" stroke="#d1dce8" stroke-width="1"/>
  <circle cx="410.1" cy="85.6" r="4.5" fill="#C8102E" stroke="#ffffff" stroke-width="1.5" opacity="0.95"/>
    <circle cx="448.5" cy="106.0" r="4.5" fill="#C8102E" stroke="#ffffff" stroke-width="1.5" opacity="0.95"/>
    <circle cx="227.5" cy="111.9" r="4.5" fill="#C8102E" stroke="#ffffff" stroke-width="1.5" opacity="0.95"/>
    <circle cx="200.2" cy="117.0" r="4.5" fill="#C8102E" stroke="#ffffff" stroke-width="1.5" opacity="0.95"/>
    <circle cx="605.6" cy="140.5" r="4.5" fill="#C8102E" stroke="#ffffff" stroke-width="1.5" opacity="0.95"/>
    <circle cx="638.1" cy="103.2" r="4.5" fill="#C8102E" stroke="#ffffff" stroke-width="1.5" opacity="0.95"/>
    <circle cx="558.6" cy="141.6" r="4.5" fill="#C8102E" stroke="#ffffff" stroke-width="1.5" opacity="0.95"/>
    <circle cx="427.3" cy="85.3" r="4.5" fill="#C8102E" stroke="#ffffff" stroke-width="1.5" opacity="0.95"/>
    <circle cx="248.6" cy="153.4" r="4.5" fill="#C8102E" stroke="#ffffff" stroke-width="1.5" opacity="0.95"/>
    <circle cx="254.7" cy="99.8" r="4.5" fill="#C8102E" stroke="#ffffff" stroke-width="1.5" opacity="0.95"/>
    <circle cx="712.8" cy="199.1" r="4.5" fill="#C8102E" stroke="#ffffff" stroke-width="1.5" opacity="0.95"/>
    <circle cx="408.9" cy="87.7" r="4.5" fill="#C8102E" stroke="#ffffff" stroke-width="1.5" opacity="0.95"/>
    <circle cx="280.6" cy="209.2" r="4.5" fill="#C8102E" stroke="#ffffff" stroke-width="1.5" opacity="0.95"/>
    <circle cx="220.8" cy="100.4" r="4.5" fill="#C8102E" stroke="#ffffff" stroke-width="1.5" opacity="0.95"/>
    <circle cx="425.7" cy="80.8" r="4.5" fill="#C8102E" stroke="#ffffff" stroke-width="1.5" opacity="0.95"/>
    <circle cx="202.1" cy="113.4" r="4.5" fill="#C8102E" stroke="#ffffff" stroke-width="1.5" opacity="0.95"/>
    <circle cx="185.3" cy="103.5" r="4.5" fill="#C8102E" stroke="#ffffff" stroke-width="1.5" opacity="0.95"/>
    <circle cx="505.3" cy="124.0" r="4.5" fill="#C8102E" stroke="#ffffff" stroke-width="1.5" opacity="0.95"/>
    <circle cx="512.8" cy="124.3" r="4.5" fill="#C8102E" stroke="#ffffff" stroke-width="1.5" opacity="0.95"/>
    <circle cx="413.8" cy="87.2" r="4.5" fill="#C8102E" stroke="#ffffff" stroke-width="1.5" opacity="0.95"/>
    <circle cx="417.7" cy="88.7" r="4.5" fill="#C8102E" stroke="#ffffff" stroke-width="1.5" opacity="0.95"/>
    <circle cx="451.0" cy="74.4" r="4.5" fill="#C8102E" stroke="#ffffff" stroke-width="1.5" opacity="0.95"/>
    <circle cx="618.1" cy="144.7" r="4.5" fill="#C8102E" stroke="#ffffff" stroke-width="1.5" opacity="0.95"/>
    <circle cx="633.4" cy="128.3" r="4.5" fill="#C8102E" stroke="#ffffff" stroke-width="1.5" opacity="0.95"/>
    <circle cx="205.0" cy="117.7" r="4.5" fill="#C8102E" stroke="#ffffff" stroke-width="1.5" opacity="0.95"/>
    <circle cx="459.3" cy="101.6" r="4.5" fill="#C8102E" stroke="#ffffff" stroke-width="1.5" opacity="0.95"/>
    <circle cx="618.4" cy="168.9" r="4.5" fill="#C8102E" stroke="#ffffff" stroke-width="1.5" opacity="0.95"/>
    <circle cx="457.4" cy="197.1" r="4.5" fill="#C8102E" stroke="#ffffff" stroke-width="1.5" opacity="0.95"/>
    <circle cx="607.9" cy="155.6" r="4.5" fill="#C8102E" stroke="#ffffff" stroke-width="1.5" opacity="0.95"/>
    <circle cx="462.4" cy="88.2" r="4.5" fill="#C8102E" stroke="#ffffff" stroke-width="1.5" opacity="0.95"/>
    <circle cx="242.5" cy="177.1" r="4.5" fill="#C8102E" stroke="#ffffff" stroke-width="1.5" opacity="0.95"/>
    <circle cx="381.3" cy="104.9" r="4.5" fill="#C8102E" stroke="#ffffff" stroke-width="1.5" opacity="0.95"/>
    <circle cx="399.7" cy="86.7" r="4.5" fill="#C8102E" stroke="#ffffff" stroke-width="1.5" opacity="0.95"/>
    <circle cx="157.9" cy="111.6" r="4.5" fill="#C8102E" stroke="#ffffff" stroke-width="1.5" opacity="0.95"/>
    <circle cx="392.5" cy="102.5" r="4.5" fill="#C8102E" stroke="#ffffff" stroke-width="1.5" opacity="0.95"/>
    <circle cx="647.3" cy="139.3" r="4.5" fill="#C8102E" stroke="#ffffff" stroke-width="1.5" opacity="0.95"/>
    <circle cx="696.4" cy="213.8" r="4.5" fill="#C8102E" stroke="#ffffff" stroke-width="1.5" opacity="0.95"/>
    <circle cx="197.1" cy="132.4" r="4.5" fill="#C8102E" stroke="#ffffff" stroke-width="1.5" opacity="0.95"/>
    <circle cx="418.8" cy="95.3" r="4.5" fill="#C8102E" stroke="#ffffff" stroke-width="1.5" opacity="0.95"/>
    <circle cx="209.3" cy="96.0" r="4.5" fill="#C8102E" stroke="#ffffff" stroke-width="1.5" opacity="0.95"/>
    <circle cx="195.0" cy="123.6" r="4.5" fill="#C8102E" stroke="#ffffff" stroke-width="1.5" opacity="0.95"/>
    <circle cx="249.6" cy="95.3" r="4.5" fill="#C8102E" stroke="#ffffff" stroke-width="1.5" opacity="0.95"/>
    <circle cx="549.0" cy="132.9" r="4.5" fill="#C8102E" stroke="#ffffff" stroke-width="1.5" opacity="0.95"/>
    <circle cx="423.6" cy="91.5" r="4.5" fill="#C8102E" stroke="#ffffff" stroke-width="1.5" opacity="0.95"/>
    <circle cx="557.8" cy="119.3" r="4.5" fill="#C8102E" stroke="#ffffff" stroke-width="1.5" opacity="0.95"/>
    <circle cx="248.8" cy="102.0" r="4.5" fill="#C8102E" stroke="#ffffff" stroke-width="1.5" opacity="0.95"/>
    <circle cx="421.9" cy="74.8" r="4.5" fill="#C8102E" stroke="#ffffff" stroke-width="1.5" opacity="0.95"/>
    <circle cx="404.7" cy="90.5" r="4.5" fill="#C8102E" stroke="#ffffff" stroke-width="1.5" opacity="0.95"/>
    <circle cx="636.9" cy="205.4" r="4.5" fill="#C8102E" stroke="#ffffff" stroke-width="1.5" opacity="0.95"/>
    <circle cx="311.7" cy="192.6" r="4.5" fill="#C8102E" stroke="#ffffff" stroke-width="1.5" opacity="0.95"/>
    <circle cx="495.4" cy="124.8" r="4.5" fill="#C8102E" stroke="#ffffff" stroke-width="1.5" opacity="0.95"/>
    <circle cx="425.5" cy="100.4" r="4.5" fill="#C8102E" stroke="#ffffff" stroke-width="1.5" opacity="0.95"/>
    <circle cx="149.8" cy="106.2" r="4.5" fill="#C8102E" stroke="#ffffff" stroke-width="1.5" opacity="0.95"/>
    <circle cx="255.7" cy="207.5" r="4.5" fill="#C8102E" stroke="#ffffff" stroke-width="1.5" opacity="0.95"/>
    <circle cx="304.6" cy="193.5" r="4.5" fill="#C8102E" stroke="#ffffff" stroke-width="1.5" opacity="0.95"/>
    <circle cx="149.9" cy="92.3" r="4.5" fill="#C8102E" stroke="#ffffff" stroke-width="1.5" opacity="0.95"/>
    <circle cx="659.6" cy="106.6" r="4.5" fill="#C8102E" stroke="#ffffff" stroke-width="1.5" opacity="0.95"/>
    <circle cx="648.3" cy="115.6" r="4.5" fill="#C8102E" stroke="#ffffff" stroke-width="1.5" opacity="0.95"/>
    <circle cx="150.3" cy="106.7" r="4.5" fill="#C8102E" stroke="#ffffff" stroke-width="1.5" opacity="0.95"/>
    <circle cx="612.3" cy="158.2" r="4.5" fill="#C8102E" stroke="#ffffff" stroke-width="1.5" opacity="0.95"/>
    <circle cx="437.0" cy="75.6" r="4.5" fill="#C8102E" stroke="#ffffff" stroke-width="1.5" opacity="0.95"/>
    <circle cx="709.1" cy="208.2" r="4.5" fill="#C8102E" stroke="#ffffff" stroke-width="1.5" opacity="0.95"/>
    <circle cx="685.8" cy="109.3" r="4.5" fill="#C8102E" stroke="#ffffff" stroke-width="1.5" opacity="0.95"/>
    <circle cx="237.7" cy="97.9" r="4.5" fill="#C8102E" stroke="#ffffff" stroke-width="1.5" opacity="0.95"/>
    <circle cx="433.4" cy="91.4" r="4.5" fill="#C8102E" stroke="#ffffff" stroke-width="1.5" opacity="0.95"/>
    <circle cx="443.0" cy="85.7" r="4.5" fill="#C8102E" stroke="#ffffff" stroke-width="1.5" opacity="0.95"/>
    <circle cx="242.5" cy="104.7" r="4.5" fill="#C8102E" stroke="#ffffff" stroke-width="1.5" opacity="0.95"/>
    <circle cx="417.4" cy="92.6" r="4.5" fill="#C8102E" stroke="#ffffff" stroke-width="1.5" opacity="0.95"/>
    <circle cx="511.2" cy="125.2" r="4.5" fill="#006838" stroke="#ffffff" stroke-width="1.5" opacity="0.95"/>
    <circle cx="410.0" cy="85.6" r="4.5" fill="#006838" stroke="#ffffff" stroke-width="1.5" opacity="0.95"/>
    <circle cx="448.5" cy="106.0" r="4.5" fill="#006838" stroke="#ffffff" stroke-width="1.5" opacity="0.95"/>
    <circle cx="227.5" cy="112.0" r="4.5" fill="#006838" stroke="#ffffff" stroke-width="1.5" opacity="0.95"/>
    <circle cx="227.5" cy="112.0" r="4.5" fill="#006838" stroke="#ffffff" stroke-width="1.5" opacity="0.95"/>
    <circle cx="227.5" cy="112.0" r="4.5" fill="#006838" stroke="#ffffff" stroke-width="1.5" opacity="0.95"/>
    <circle cx="439.2" cy="90.7" r="4.5" fill="#006838" stroke="#ffffff" stroke-width="1.5" opacity="0.95"/>
    <circle cx="200.2" cy="117.0" r="4.5" fill="#006838" stroke="#ffffff" stroke-width="1.5" opacity="0.95"/>
    <circle cx="605.6" cy="140.5" r="4.5" fill="#006838" stroke="#ffffff" stroke-width="1.5" opacity="0.95"/>
    <circle cx="404.3" cy="101.1" r="4.5" fill="#006838" stroke="#ffffff" stroke-width="1.5" opacity="0.95"/>
    <circle cx="638.1" cy="103.2" r="4.5" fill="#006838" stroke="#ffffff" stroke-width="1.5" opacity="0.95"/>
    <circle cx="558.6" cy="141.5" r="4.5" fill="#006838" stroke="#ffffff" stroke-width="1.5" opacity="0.95"/>
    <circle cx="427.5" cy="85.3" r="4.5" fill="#006838" stroke="#ffffff" stroke-width="1.5" opacity="0.95"/>
    <circle cx="248.5" cy="153.4" r="4.5" fill="#006838" stroke="#ffffff" stroke-width="1.5" opacity="0.95"/>
    <circle cx="254.8" cy="99.8" r="4.5" fill="#006838" stroke="#ffffff" stroke-width="1.5" opacity="0.95"/>
    <circle cx="408.9" cy="87.7" r="4.5" fill="#006838" stroke="#ffffff" stroke-width="1.5" opacity="0.95"/>
    <circle cx="439.0" cy="92.5" r="4.5" fill="#006838" stroke="#ffffff" stroke-width="1.5" opacity="0.95"/>
    <circle cx="280.7" cy="209.2" r="4.5" fill="#006838" stroke="#ffffff" stroke-width="1.5" opacity="0.95"/>
    <circle cx="463.9" cy="117.3" r="4.5" fill="#006838" stroke="#ffffff" stroke-width="1.5" opacity="0.95"/>
    <circle cx="166.8" cy="87.4" r="4.5" fill="#006838" stroke="#ffffff" stroke-width="1.5" opacity="0.95"/>
    <circle cx="383.7" cy="112.7" r="4.5" fill="#006838" stroke="#ffffff" stroke-width="1.5" opacity="0.95"/>
    <circle cx="564.1" cy="141.4" r="4.5" fill="#006838" stroke="#ffffff" stroke-width="1.5" opacity="0.95"/>
    <circle cx="220.8" cy="100.4" r="4.5" fill="#006838" stroke="#ffffff" stroke-width="1.5" opacity="0.95"/>
    <circle cx="414.2" cy="87.5" r="4.5" fill="#006838" stroke="#ffffff" stroke-width="1.5" opacity="0.95"/>
    <circle cx="425.6" cy="80.8" r="4.5" fill="#006838" stroke="#ffffff" stroke-width="1.5" opacity="0.95"/>
    <circle cx="202.1" cy="113.4" r="4.5" fill="#006838" stroke="#ffffff" stroke-width="1.5" opacity="0.95"/>
    <circle cx="557.8" cy="119.3" r="4.5" fill="#006838" stroke="#ffffff" stroke-width="1.5" opacity="0.95"/>
    <circle cx="185.3" cy="103.5" r="4.5" fill="#006838" stroke="#ffffff" stroke-width="1.5" opacity="0.95"/>
    <circle cx="230.0" cy="99.5" r="4.5" fill="#006838" stroke="#ffffff" stroke-width="1.5" opacity="0.95"/>
    <circle cx="505.3" cy="124.0" r="4.5" fill="#006838" stroke="#ffffff" stroke-width="1.5" opacity="0.95"/>
    <circle cx="513.0" cy="124.1" r="4.5" fill="#006838" stroke="#ffffff" stroke-width="1.5" opacity="0.95"/>
    <circle cx="387.2" cy="84.1" r="4.5" fill="#006838" stroke="#ffffff" stroke-width="1.5" opacity="0.95"/>
    <circle cx="413.9" cy="87.1" r="4.5" fill="#006838" stroke="#ffffff" stroke-width="1.5" opacity="0.95"/>
    <circle cx="417.7" cy="88.7" r="4.5" fill="#006838" stroke="#ffffff" stroke-width="1.5" opacity="0.95"/>
    <circle cx="412.6" cy="94.3" r="4.5" fill="#006838" stroke="#ffffff" stroke-width="1.5" opacity="0.95"/>
    <circle cx="420.4" cy="83.8" r="4.5" fill="#006838" stroke="#ffffff" stroke-width="1.5" opacity="0.95"/>
    <circle cx="451.0" cy="74.4" r="4.5" fill="#006838" stroke="#ffffff" stroke-width="1.5" opacity="0.95"/>
    <circle cx="618.1" cy="144.7" r="4.5" fill="#006838" stroke="#ffffff" stroke-width="1.5" opacity="0.95"/>
    <circle cx="633.5" cy="128.3" r="4.5" fill="#006838" stroke="#ffffff" stroke-width="1.5" opacity="0.95"/>
    <circle cx="205.0" cy="117.7" r="4.5" fill="#006838" stroke="#ffffff" stroke-width="1.5" opacity="0.95"/>
    <circle cx="459.3" cy="101.6" r="4.5" fill="#006838" stroke="#ffffff" stroke-width="1.5" opacity="0.95"/>
    <circle cx="618.4" cy="168.8" r="4.5" fill="#006838" stroke="#ffffff" stroke-width="1.5" opacity="0.95"/>
    <circle cx="457.3" cy="197.1" r="4.5" fill="#006838" stroke="#ffffff" stroke-width="1.5" opacity="0.95"/>
    <circle cx="607.9" cy="155.5" r="4.5" fill="#006838" stroke="#ffffff" stroke-width="1.5" opacity="0.95"/>
    <circle cx="462.4" cy="88.2" r="4.5" fill="#006838" stroke="#ffffff" stroke-width="1.5" opacity="0.95"/>
    <circle cx="407.0" cy="150.8" r="4.5" fill="#006838" stroke="#ffffff" stroke-width="1.5" opacity="0.95"/>
    <circle cx="242.5" cy="177.1" r="4.5" fill="#006838" stroke="#ffffff" stroke-width="1.5" opacity="0.95"/>
    <circle cx="381.3" cy="104.9" r="4.5" fill="#006838" stroke="#ffffff" stroke-width="1.5" opacity="0.95"/>
    <circle cx="399.7" cy="86.7" r="4.5" fill="#006838" stroke="#ffffff" stroke-width="1.5" opacity="0.95"/>
    <circle cx="158.2" cy="111.6" r="4.5" fill="#006838" stroke="#ffffff" stroke-width="1.5" opacity="0.95"/>
    <circle cx="392.5" cy="102.5" r="4.5" fill="#006838" stroke="#ffffff" stroke-width="1.5" opacity="0.95"/>
    <circle cx="696.4" cy="213.8" r="4.5" fill="#006838" stroke="#ffffff" stroke-width="1.5" opacity="0.95"/>
    <circle cx="197.3" cy="132.4" r="4.5" fill="#006838" stroke="#ffffff" stroke-width="1.5" opacity="0.95"/>
    <circle cx="236.0" cy="123.4" r="4.5" fill="#006838" stroke="#ffffff" stroke-width="1.5" opacity="0.95"/>
    <circle cx="418.8" cy="95.3" r="4.5" fill="#006838" stroke="#ffffff" stroke-width="1.5" opacity="0.95"/>
    <circle cx="209.3" cy="96.0" r="4.5" fill="#006838" stroke="#ffffff" stroke-width="1.5" opacity="0.95"/>
    <circle cx="195.0" cy="123.6" r="4.5" fill="#006838" stroke="#ffffff" stroke-width="1.5" opacity="0.95"/>
    <circle cx="249.6" cy="95.3" r="4.5" fill="#006838" stroke="#ffffff" stroke-width="1.5" opacity="0.95"/>
    <circle cx="476.9" cy="80.7" r="4.5" fill="#006838" stroke="#ffffff" stroke-width="1.5" opacity="0.95"/>
    <circle cx="548.9" cy="133.1" r="4.5" fill="#006838" stroke="#ffffff" stroke-width="1.5" opacity="0.95"/>
    <circle cx="423.7" cy="91.5" r="4.5" fill="#006838" stroke="#ffffff" stroke-width="1.5" opacity="0.95"/>
    <circle cx="475.3" cy="162.0" r="4.5" fill="#006838" stroke="#ffffff" stroke-width="1.5" opacity="0.95"/>
    <circle cx="248.7" cy="102.0" r="4.5" fill="#006838" stroke="#ffffff" stroke-width="1.5" opacity="0.95"/>
    <circle cx="677.0" cy="110.7" r="4.5" fill="#006838" stroke="#ffffff" stroke-width="1.5" opacity="0.95"/>
    <circle cx="421.9" cy="74.8" r="4.5" fill="#006838" stroke="#ffffff" stroke-width="1.5" opacity="0.95"/>
    <circle cx="404.7" cy="90.5" r="4.5" fill="#006838" stroke="#ffffff" stroke-width="1.5" opacity="0.95"/>
    <circle cx="246.3" cy="103.2" r="4.5" fill="#006838" stroke="#ffffff" stroke-width="1.5" opacity="0.95"/>
    <circle cx="429.5" cy="88.8" r="4.5" fill="#006838" stroke="#ffffff" stroke-width="1.5" opacity="0.95"/>
    <circle cx="311.7" cy="192.7" r="4.5" fill="#006838" stroke="#ffffff" stroke-width="1.5" opacity="0.95"/>
    <circle cx="495.4" cy="124.9" r="4.5" fill="#006838" stroke="#ffffff" stroke-width="1.5" opacity="0.95"/>
    <circle cx="425.5" cy="100.4" r="4.5" fill="#006838" stroke="#ffffff" stroke-width="1.5" opacity="0.95"/>
    <circle cx="149.8" cy="106.2" r="4.5" fill="#006838" stroke="#ffffff" stroke-width="1.5" opacity="0.95"/>
    <circle cx="255.6" cy="207.5" r="4.5" fill="#006838" stroke="#ffffff" stroke-width="1.5" opacity="0.95"/>
    <circle cx="304.5" cy="193.6" r="4.5" fill="#006838" stroke="#ffffff" stroke-width="1.5" opacity="0.95"/>
    <circle cx="149.9" cy="92.3" r="4.5" fill="#006838" stroke="#ffffff" stroke-width="1.5" opacity="0.95"/>
    <circle cx="659.6" cy="106.6" r="4.5" fill="#006838" stroke="#ffffff" stroke-width="1.5" opacity="0.95"/>
    <circle cx="648.4" cy="115.6" r="4.5" fill="#006838" stroke="#ffffff" stroke-width="1.5" opacity="0.95"/>
    <circle cx="150.4" cy="106.8" r="4.5" fill="#006838" stroke="#ffffff" stroke-width="1.5" opacity="0.95"/>
    <circle cx="612.3" cy="158.2" r="4.5" fill="#006838" stroke="#ffffff" stroke-width="1.5" opacity="0.95"/>
    <circle cx="436.9" cy="75.6" r="4.5" fill="#006838" stroke="#ffffff" stroke-width="1.5" opacity="0.95"/>
    <circle cx="418.8" cy="90.6" r="4.5" fill="#006838" stroke="#ffffff" stroke-width="1.5" opacity="0.95"/>
    <circle cx="709.1" cy="208.2" r="4.5" fill="#006838" stroke="#ffffff" stroke-width="1.5" opacity="0.95"/>
    <circle cx="648.5" cy="124.4" r="4.5" fill="#006838" stroke="#ffffff" stroke-width="1.5" opacity="0.95"/>
    <circle cx="471.1" cy="114.4" r="4.5" fill="#006838" stroke="#ffffff" stroke-width="1.5" opacity="0.95"/>
    <circle cx="685.7" cy="109.3" r="4.5" fill="#006838" stroke="#ffffff" stroke-width="1.5" opacity="0.95"/>
    <circle cx="237.7" cy="97.9" r="4.5" fill="#006838" stroke="#ffffff" stroke-width="1.5" opacity="0.95"/>
    <circle cx="433.2" cy="91.4" r="4.5" fill="#006838" stroke="#ffffff" stroke-width="1.5" opacity="0.95"/>
    <circle cx="443.0" cy="85.7" r="4.5" fill="#006838" stroke="#ffffff" stroke-width="1.5" opacity="0.95"/>
    <circle cx="242.5" cy="104.7" r="4.5" fill="#006838" stroke="#ffffff" stroke-width="1.5" opacity="0.95"/>
    <circle cx="417.4" cy="92.6" r="4.5" fill="#006838" stroke="#ffffff" stroke-width="1.5" opacity="0.95"/>
    <circle cx="511.3" cy="125.3" r="4.5" fill="#1B6EC2" stroke="#ffffff" stroke-width="1.5" opacity="0.95"/>
    <circle cx="479.3" cy="147.2" r="4.5" fill="#1B6EC2" stroke="#ffffff" stroke-width="1.5" opacity="0.95"/>
    <circle cx="557.3" cy="98.5" r="4.5" fill="#1B6EC2" stroke="#ffffff" stroke-width="1.5" opacity="0.95"/>
    <circle cx="473.3" cy="114.5" r="4.5" fill="#1B6EC2" stroke="#ffffff" stroke-width="1.5" opacity="0.95"/>
    <circle cx="410.0" cy="85.5" r="4.5" fill="#1B6EC2" stroke="#ffffff" stroke-width="1.5" opacity="0.95"/>
    <circle cx="546.0" cy="87.3" r="4.5" fill="#1B6EC2" stroke="#ffffff" stroke-width="1.5" opacity="0.95"/>
    <circle cx="448.5" cy="106.0" r="4.5" fill="#1B6EC2" stroke="#ffffff" stroke-width="1.5" opacity="0.95"/>
    <circle cx="227.5" cy="112.0" r="4.5" fill="#1B6EC2" stroke="#ffffff" stroke-width="1.5" opacity="0.95"/>
    <circle cx="757.3" cy="212.4" r="4.5" fill="#1B6EC2" stroke="#ffffff" stroke-width="1.5" opacity="0.95"/>
    <circle cx="200.2" cy="116.9" r="4.5" fill="#1B6EC2" stroke="#ffffff" stroke-width="1.5" opacity="0.95"/>
    <circle cx="501.9" cy="102.6" r="4.5" fill="#1B6EC2" stroke="#ffffff" stroke-width="1.5" opacity="0.95"/>
    <circle cx="605.6" cy="140.5" r="4.5" fill="#1B6EC2" stroke="#ffffff" stroke-width="1.5" opacity="0.95"/>
    <circle cx="404.4" cy="101.1" r="4.5" fill="#1B6EC2" stroke="#ffffff" stroke-width="1.5" opacity="0.95"/>
    <circle cx="149.8" cy="106.3" r="4.5" fill="#1B6EC2" stroke="#ffffff" stroke-width="1.5" opacity="0.95"/>
    <circle cx="150.1" cy="106.7" r="4.5" fill="#1B6EC2" stroke="#ffffff" stroke-width="1.5" opacity="0.95"/>
    <circle cx="638.1" cy="103.2" r="4.5" fill="#1B6EC2" stroke="#ffffff" stroke-width="1.5" opacity="0.95"/>
    <circle cx="310.2" cy="188.3" r="4.5" fill="#1B6EC2" stroke="#ffffff" stroke-width="1.5" opacity="0.95"/>
    <circle cx="558.9" cy="141.5" r="4.5" fill="#1B6EC2" stroke="#ffffff" stroke-width="1.5" opacity="0.95"/>
    <circle cx="427.3" cy="85.3" r="4.5" fill="#1B6EC2" stroke="#ffffff" stroke-width="1.5" opacity="0.95"/>
    <circle cx="248.6" cy="153.4" r="4.5" fill="#1B6EC2" stroke="#ffffff" stroke-width="1.5" opacity="0.95"/>
    <circle cx="254.7" cy="99.8" r="4.5" fill="#1B6EC2" stroke="#ffffff" stroke-width="1.5" opacity="0.95"/>
    <circle cx="712.9" cy="199.1" r="4.5" fill="#1B6EC2" stroke="#ffffff" stroke-width="1.5" opacity="0.95"/>
    <circle cx="408.9" cy="87.7" r="4.5" fill="#1B6EC2" stroke="#ffffff" stroke-width="1.5" opacity="0.95"/>
    <circle cx="453.4" cy="96.8" r="4.5" fill="#1B6EC2" stroke="#ffffff" stroke-width="1.5" opacity="0.95"/>
    <circle cx="439.0" cy="92.4" r="4.5" fill="#1B6EC2" stroke="#ffffff" stroke-width="1.5" opacity="0.95"/>
    <circle cx="280.7" cy="209.2" r="4.5" fill="#1B6EC2" stroke="#ffffff" stroke-width="1.5" opacity="0.95"/>
    <circle cx="463.8" cy="117.2" r="4.5" fill="#1B6EC2" stroke="#ffffff" stroke-width="1.5" opacity="0.95"/>
    <circle cx="384.3" cy="112.2" r="4.5" fill="#1B6EC2" stroke="#ffffff" stroke-width="1.5" opacity="0.95"/>
    <circle cx="234.7" cy="109.9" r="4.5" fill="#1B6EC2" stroke="#ffffff" stroke-width="1.5" opacity="0.95"/>
    <circle cx="612.8" cy="116.4" r="4.5" fill="#1B6EC2" stroke="#ffffff" stroke-width="1.5" opacity="0.95"/>
    <circle cx="564.1" cy="141.6" r="4.5" fill="#1B6EC2" stroke="#ffffff" stroke-width="1.5" opacity="0.95"/>
    <circle cx="220.9" cy="100.4" r="4.5" fill="#1B6EC2" stroke="#ffffff" stroke-width="1.5" opacity="0.95"/>
    <circle cx="414.2" cy="87.5" r="4.5" fill="#1B6EC2" stroke="#ffffff" stroke-width="1.5" opacity="0.95"/>
    <circle cx="563.3" cy="150.1" r="4.5" fill="#1B6EC2" stroke="#ffffff" stroke-width="1.5" opacity="0.95"/>
    <circle cx="249.8" cy="101.6" r="4.5" fill="#1B6EC2" stroke="#ffffff" stroke-width="1.5" opacity="0.95"/>
    <circle cx="425.7" cy="80.8" r="4.5" fill="#1B6EC2" stroke="#ffffff" stroke-width="1.5" opacity="0.95"/>
    <circle cx="202.1" cy="113.4" r="4.5" fill="#1B6EC2" stroke="#ffffff" stroke-width="1.5" opacity="0.95"/>
    <circle cx="230.2" cy="99.8" r="4.5" fill="#1B6EC2" stroke="#ffffff" stroke-width="1.5" opacity="0.95"/>
    <circle cx="505.3" cy="124.0" r="4.5" fill="#1B6EC2" stroke="#ffffff" stroke-width="1.5" opacity="0.95"/>
    <circle cx="513.0" cy="124.1" r="4.5" fill="#1B6EC2" stroke="#ffffff" stroke-width="1.5" opacity="0.95"/>
    <circle cx="387.2" cy="84.1" r="4.5" fill="#1B6EC2" stroke="#ffffff" stroke-width="1.5" opacity="0.95"/>
    <circle cx="413.8" cy="87.1" r="4.5" fill="#1B6EC2" stroke="#ffffff" stroke-width="1.5" opacity="0.95"/>
    <circle cx="236.0" cy="123.4" r="4.5" fill="#1B6EC2" stroke="#ffffff" stroke-width="1.5" opacity="0.95"/>
    <circle cx="417.7" cy="88.7" r="4.5" fill="#1B6EC2" stroke="#ffffff" stroke-width="1.5" opacity="0.95"/>
    <circle cx="453.0" cy="195.1" r="4.5" fill="#1B6EC2" stroke="#ffffff" stroke-width="1.5" opacity="0.95"/>
    <circle cx="412.6" cy="94.3" r="4.5" fill="#1B6EC2" stroke="#ffffff" stroke-width="1.5" opacity="0.95"/>
    <circle cx="424.5" cy="77.9" r="4.5" fill="#1B6EC2" stroke="#ffffff" stroke-width="1.5" opacity="0.95"/>
    <circle cx="215.0" cy="139.2" r="4.5" fill="#1B6EC2" stroke="#ffffff" stroke-width="1.5" opacity="0.95"/>
    <circle cx="557.5" cy="119.6" r="4.5" fill="#1B6EC2" stroke="#ffffff" stroke-width="1.5" opacity="0.95"/>
    <circle cx="557.5" cy="119.6" r="4.5" fill="#1B6EC2" stroke="#ffffff" stroke-width="1.5" opacity="0.95"/>
    <circle cx="420.4" cy="83.9" r="4.5" fill="#1B6EC2" stroke="#ffffff" stroke-width="1.5" opacity="0.95"/>
    <circle cx="616.4" cy="130.1" r="4.5" fill="#1B6EC2" stroke="#ffffff" stroke-width="1.5" opacity="0.95"/>
    <circle cx="451.0" cy="74.4" r="4.5" fill="#1B6EC2" stroke="#ffffff" stroke-width="1.5" opacity="0.95"/>
    <circle cx="471.2" cy="114.3" r="4.5" fill="#1B6EC2" stroke="#ffffff" stroke-width="1.5" opacity="0.95"/>
    <circle cx="618.0" cy="144.6" r="4.5" fill="#1B6EC2" stroke="#ffffff" stroke-width="1.5" opacity="0.95"/>
    <circle cx="633.4" cy="128.3" r="4.5" fill="#1B6EC2" stroke="#ffffff" stroke-width="1.5" opacity="0.95"/>
    <circle cx="205.0" cy="117.7" r="4.5" fill="#1B6EC2" stroke="#ffffff" stroke-width="1.5" opacity="0.95"/>
    <circle cx="459.3" cy="101.6" r="4.5" fill="#1B6EC2" stroke="#ffffff" stroke-width="1.5" opacity="0.95"/>
    <circle cx="618.4" cy="168.8" r="4.5" fill="#1B6EC2" stroke="#ffffff" stroke-width="1.5" opacity="0.95"/>
    <circle cx="457.4" cy="197.1" r="4.5" fill="#1B6EC2" stroke="#ffffff" stroke-width="1.5" opacity="0.95"/>
    <circle cx="677.0" cy="110.7" r="4.5" fill="#1B6EC2" stroke="#ffffff" stroke-width="1.5" opacity="0.95"/>
    <circle cx="537.0" cy="124.7" r="4.5" fill="#1B6EC2" stroke="#ffffff" stroke-width="1.5" opacity="0.95"/>
    <circle cx="580.7" cy="127.9" r="4.5" fill="#1B6EC2" stroke="#ffffff" stroke-width="1.5" opacity="0.95"/>
    <circle cx="607.9" cy="155.5" r="4.5" fill="#1B6EC2" stroke="#ffffff" stroke-width="1.5" opacity="0.95"/>
    <circle cx="498.1" cy="118.2" r="4.5" fill="#1B6EC2" stroke="#ffffff" stroke-width="1.5" opacity="0.95"/>
    <circle cx="462.4" cy="88.3" r="4.5" fill="#1B6EC2" stroke="#ffffff" stroke-width="1.5" opacity="0.95"/>
    <circle cx="407.0" cy="150.8" r="4.5" fill="#1B6EC2" stroke="#ffffff" stroke-width="1.5" opacity="0.95"/>
    <circle cx="242.5" cy="177.2" r="4.5" fill="#1B6EC2" stroke="#ffffff" stroke-width="1.5" opacity="0.95"/>
    <circle cx="381.3" cy="104.9" r="4.5" fill="#1B6EC2" stroke="#ffffff" stroke-width="1.5" opacity="0.95"/>
    <circle cx="399.7" cy="86.7" r="4.5" fill="#1B6EC2" stroke="#ffffff" stroke-width="1.5" opacity="0.95"/>
    <circle cx="427.1" cy="172.5" r="4.5" fill="#1B6EC2" stroke="#ffffff" stroke-width="1.5" opacity="0.95"/>
    <circle cx="412.5" cy="89.4" r="4.5" fill="#1B6EC2" stroke="#ffffff" stroke-width="1.5" opacity="0.95"/>
    <circle cx="409.9" cy="94.9" r="4.5" fill="#1B6EC2" stroke="#ffffff" stroke-width="1.5" opacity="0.95"/>
    <circle cx="392.4" cy="102.5" r="4.5" fill="#1B6EC2" stroke="#ffffff" stroke-width="1.5" opacity="0.95"/>
    <circle cx="503.4" cy="122.7" r="4.5" fill="#1B6EC2" stroke="#ffffff" stroke-width="1.5" opacity="0.95"/>
    <circle cx="647.4" cy="139.3" r="4.5" fill="#1B6EC2" stroke="#ffffff" stroke-width="1.5" opacity="0.95"/>
    <circle cx="245.5" cy="151.2" r="4.5" fill="#1B6EC2" stroke="#ffffff" stroke-width="1.5" opacity="0.95"/>
    <circle cx="696.4" cy="213.8" r="4.5" fill="#1B6EC2" stroke="#ffffff" stroke-width="1.5" opacity="0.95"/>
    <circle cx="197.2" cy="132.4" r="4.5" fill="#1B6EC2" stroke="#ffffff" stroke-width="1.5" opacity="0.95"/>
    <circle cx="418.8" cy="95.3" r="4.5" fill="#1B6EC2" stroke="#ffffff" stroke-width="1.5" opacity="0.95"/>
    <circle cx="209.3" cy="96.0" r="4.5" fill="#1B6EC2" stroke="#ffffff" stroke-width="1.5" opacity="0.95"/>
    <circle cx="235.7" cy="123.1" r="4.5" fill="#1B6EC2" stroke="#ffffff" stroke-width="1.5" opacity="0.95"/>
    <circle cx="195.0" cy="123.6" r="4.5" fill="#1B6EC2" stroke="#ffffff" stroke-width="1.5" opacity="0.95"/>
    <circle cx="285.1" cy="209.6" r="4.5" fill="#1B6EC2" stroke="#ffffff" stroke-width="1.5" opacity="0.95"/>
    <circle cx="249.6" cy="95.3" r="4.5" fill="#1B6EC2" stroke="#ffffff" stroke-width="1.5" opacity="0.95"/>
    <circle cx="476.8" cy="80.7" r="4.5" fill="#1B6EC2" stroke="#ffffff" stroke-width="1.5" opacity="0.95"/>
    <circle cx="548.9" cy="133.1" r="4.5" fill="#1B6EC2" stroke="#ffffff" stroke-width="1.5" opacity="0.95"/>
    <circle cx="423.6" cy="91.5" r="4.5" fill="#1B6EC2" stroke="#ffffff" stroke-width="1.5" opacity="0.95"/>
    <circle cx="475.2" cy="161.8" r="4.5" fill="#1B6EC2" stroke="#ffffff" stroke-width="1.5" opacity="0.95"/>
    <circle cx="248.4" cy="102.1" r="4.5" fill="#1B6EC2" stroke="#ffffff" stroke-width="1.5" opacity="0.95"/>
    <circle cx="248.7" cy="102.1" r="4.5" fill="#1B6EC2" stroke="#ffffff" stroke-width="1.5" opacity="0.95"/>
    <circle cx="422.7" cy="89.7" r="4.5" fill="#1B6EC2" stroke="#ffffff" stroke-width="1.5" opacity="0.95"/>
    <circle cx="233.0" cy="101.0" r="4.5" fill="#1B6EC2" stroke="#ffffff" stroke-width="1.5" opacity="0.95"/>
    <circle cx="230.3" cy="103.1" r="4.5" fill="#1B6EC2" stroke="#ffffff" stroke-width="1.5" opacity="0.95"/>
    <circle cx="421.9" cy="74.8" r="4.5" fill="#1B6EC2" stroke="#ffffff" stroke-width="1.5" opacity="0.95"/>
    <circle cx="237.4" cy="147.2" r="4.5" fill="#1B6EC2" stroke="#ffffff" stroke-width="1.5" opacity="0.95"/>
    <circle cx="404.7" cy="90.5" r="4.5" fill="#1B6EC2" stroke="#ffffff" stroke-width="1.5" opacity="0.95"/>
    <circle cx="636.9" cy="205.4" r="4.5" fill="#1B6EC2" stroke="#ffffff" stroke-width="1.5" opacity="0.95"/>
    <circle cx="246.3" cy="103.2" r="4.5" fill="#1B6EC2" stroke="#ffffff" stroke-width="1.5" opacity="0.95"/>
    <circle cx="171.1" cy="112.5" r="4.5" fill="#1B6EC2" stroke="#ffffff" stroke-width="1.5" opacity="0.95"/>
    <circle cx="236.4" cy="102.5" r="4.5" fill="#1B6EC2" stroke="#ffffff" stroke-width="1.5" opacity="0.95"/>
    <circle cx="434.6" cy="85.5" r="4.5" fill="#1B6EC2" stroke="#ffffff" stroke-width="1.5" opacity="0.95"/>
    <circle cx="429.5" cy="88.8" r="4.5" fill="#1B6EC2" stroke="#ffffff" stroke-width="1.5" opacity="0.95"/>
    <circle cx="239.5" cy="160.3" r="4.5" fill="#1B6EC2" stroke="#ffffff" stroke-width="1.5" opacity="0.95"/>
    <circle cx="227.5" cy="112.0" r="4.5" fill="#1B6EC2" stroke="#ffffff" stroke-width="1.5" opacity="0.95"/>
    <circle cx="311.7" cy="192.6" r="4.5" fill="#1B6EC2" stroke="#ffffff" stroke-width="1.5" opacity="0.95"/>
    <circle cx="495.4" cy="124.9" r="4.5" fill="#1B6EC2" stroke="#ffffff" stroke-width="1.5" opacity="0.95"/>
    <circle cx="185.3" cy="103.5" r="4.5" fill="#1B6EC2" stroke="#ffffff" stroke-width="1.5" opacity="0.95"/>
    <circle cx="425.5" cy="100.4" r="4.5" fill="#1B6EC2" stroke="#ffffff" stroke-width="1.5" opacity="0.95"/>
    <circle cx="321.4" cy="178.5" r="4.5" fill="#1B6EC2" stroke="#ffffff" stroke-width="1.5" opacity="0.95"/>
    <circle cx="255.7" cy="207.5" r="4.5" fill="#1B6EC2" stroke="#ffffff" stroke-width="1.5" opacity="0.95"/>
    <circle cx="257.1" cy="133.7" r="4.5" fill="#1B6EC2" stroke="#ffffff" stroke-width="1.5" opacity="0.95"/>
    <circle cx="304.6" cy="193.6" r="4.5" fill="#1B6EC2" stroke="#ffffff" stroke-width="1.5" opacity="0.95"/>
    <circle cx="149.9" cy="92.3" r="4.5" fill="#1B6EC2" stroke="#ffffff" stroke-width="1.5" opacity="0.95"/>
    <circle cx="659.5" cy="106.6" r="4.5" fill="#1B6EC2" stroke="#ffffff" stroke-width="1.5" opacity="0.95"/>
    <circle cx="648.3" cy="115.6" r="4.5" fill="#1B6EC2" stroke="#ffffff" stroke-width="1.5" opacity="0.95"/>
    <circle cx="633.2" cy="127.9" r="4.5" fill="#1B6EC2" stroke="#ffffff" stroke-width="1.5" opacity="0.95"/>
    <circle cx="612.3" cy="158.2" r="4.5" fill="#1B6EC2" stroke="#ffffff" stroke-width="1.5" opacity="0.95"/>
    <circle cx="215.3" cy="105.0" r="4.5" fill="#1B6EC2" stroke="#ffffff" stroke-width="1.5" opacity="0.95"/>
    <circle cx="158.2" cy="111.6" r="4.5" fill="#1B6EC2" stroke="#ffffff" stroke-width="1.5" opacity="0.95"/>
    <circle cx="436.9" cy="75.6" r="4.5" fill="#1B6EC2" stroke="#ffffff" stroke-width="1.5" opacity="0.95"/>
    <circle cx="418.8" cy="90.6" r="4.5" fill="#1B6EC2" stroke="#ffffff" stroke-width="1.5" opacity="0.95"/>
    <circle cx="709.1" cy="208.2" r="4.5" fill="#1B6EC2" stroke="#ffffff" stroke-width="1.5" opacity="0.95"/>
    <circle cx="648.5" cy="124.4" r="4.5" fill="#1B6EC2" stroke="#ffffff" stroke-width="1.5" opacity="0.95"/>
    <circle cx="231.0" cy="120.3" r="4.5" fill="#1B6EC2" stroke="#ffffff" stroke-width="1.5" opacity="0.95"/>
    <circle cx="471.1" cy="114.4" r="4.5" fill="#1B6EC2" stroke="#ffffff" stroke-width="1.5" opacity="0.95"/>
    <circle cx="685.7" cy="109.3" r="4.5" fill="#1B6EC2" stroke="#ffffff" stroke-width="1.5" opacity="0.95"/>
    <circle cx="237.7" cy="97.9" r="4.5" fill="#1B6EC2" stroke="#ffffff" stroke-width="1.5" opacity="0.95"/>
    <circle cx="433.5" cy="91.4" r="4.5" fill="#1B6EC2" stroke="#ffffff" stroke-width="1.5" opacity="0.95"/>
    <circle cx="443.0" cy="85.7" r="4.5" fill="#1B6EC2" stroke="#ffffff" stroke-width="1.5" opacity="0.95"/>
    <circle cx="242.5" cy="104.7" r="4.5" fill="#1B6EC2" stroke="#ffffff" stroke-width="1.5" opacity="0.95"/>
    <circle cx="166.8" cy="87.4" r="4.5" fill="#1B6EC2" stroke="#ffffff" stroke-width="1.5" opacity="0.95"/>
    <circle cx="148.3" cy="89.9" r="4.5" fill="#1B6EC2" stroke="#ffffff" stroke-width="1.5" opacity="0.95"/>
    <circle cx="434.9" cy="87.3" r="4.5" fill="#1B6EC2" stroke="#ffffff" stroke-width="1.5" opacity="0.95"/>
    <circle cx="432.7" cy="94.9" r="4.5" fill="#1B6EC2" stroke="#ffffff" stroke-width="1.5" opacity="0.95"/>
    <circle cx="417.5" cy="92.6" r="4.5" fill="#1B6EC2" stroke="#ffffff" stroke-width="1.5" opacity="0.95"/>
</svg>